# xmcd
#
# Track frame offsets:
#	150
#	14900
#	17691
#	38997
#	54072
#	73716
#	92851
#	113105
#	132847
#	149643
#	166642
#	184787
#	201161
#	218815
#	236655
#
# Disc length: 3403 seconds
#
# Revision: 1
# Processed by: cddbd v1.4PL0 Copyright (c) Steve Scherf et al.
# Submitted via: audiograbber 1.81.02
#
DISCID=d60d490f
DTITLE=Udo Jürgens - Es Lebe Das Laster
DYEAR=2002
DGENRE=Other
TTITLE0=Es lebe das Laster
TTITLE1=Fanfare es lebe das Laster
TTITLE2=Folgst du mir
TTITLE3=Weichei
TTITLE4=Solang' mich deine Liebe trägt
TTITLE5=Alle Macht den Gefühlen
TTITLE6=Schöne Grüsse aus der Hölle
TTITLE7=Engel einer Nacht
TTITLE8=Flug LH 804
TTITLE9=Sommer in Berlin
TTITLE10=Wenn nicht wir, wer dann
TTITLE11=Mach' dir deine Welt
TTITLE12=Wenn ich nach Hause komm'
TTITLE13=Mensch Alter mach's gut
TTITLE14=Die Leichtigkeit des Seins
EXTD=
EXTT0=
EXTT1=
EXTT2=
EXTT3=
EXTT4=
EXTT5=
EXTT6=
EXTT7=
EXTT8=
EXTT9=
EXTT10=
EXTT11=
EXTT12=
EXTT13=
EXTT14=
PLAYORDER=
